# xmcd CD database file
#
# Track frame offsets:
#	150
#	20680
#	33062
#	49364
#	65534
#	91065
#	122140
#	134432
#	165363
#	206257
#	229267
#
# Disc length: 3189 seconds
#
# Revision: 0
# Processed by: cddbd v1.4PL0 Copyright (c) Steve Scherf et al.
# Submitted via: CDex 1.40Beta8
#
DISCID=8d0c730b
DTITLE=Supercharge - Loaded! Live at Spectrum, Augsburg - Disk 2
DYEAR=1900
DGENRE=Blues
TTITLE0=Don't Worry 'Bout A Thing
TTITLE1=Mellow Saxophone
TTITLE2=Won't Be Your Fool Anymore
TTITLE3=Boogie Woogie King
TTITLE4=Harlem Nocturne
TTITLE5=Kidney Stew
TTITLE6=Rocket 88
TTITLE7=Happy Birthday Blues
TTITLE8=Hoochie Coochie Man
TTITLE9=Roll 'Em Pete
TTITLE10=Oh Yeah! Oh Yeah!
EXTD=ID3G: 0
EXTT0=
EXTT1=
EXTT2=
EXTT3=
EXTT4=
EXTT5=
EXTT6=
EXTT7=
EXTT8=
EXTT9=
EXTT10=
PLAYORDER=
